<svg xmlns="http://www.w3.org/2000/svg" viewBox="24.55 14.55 153.14 151.39"><path fill="url(#a)" d="M174.82 108.75 155.38 75l10.26-17.25c.82-1.44.82-3.22 0-4.66l-10.26-17.25a2.968 2.968 0 0 0-2.6-1.51h-37.9l-8.74-15.3a2.968 2.968 0 0 0-2.6-1.51H83.3c-1.09 0-2.08.58-2.6 1.51L61.26 52.77H41.02c-1.09 0-2.08.58-2.6 1.51L28.16 71.53a4.721 4.721 0 0 0 0 4.66l17.36 31.31-8.74 15.3a4.721 4.721 0 0 0 0 4.66l10.26 17.25c.52.93 1.51 1.51 2.6 1.51h37.9l8.74 15.3c.52.93 1.51 1.51 2.6 1.51h20.24c1.09 0 2.08-.58 2.6-1.51l19.44-33.74h17.36c1.09 0 2.08-.58 2.6-1.51l10.26-17.25c.82-1.44.82-3.22 0-4.66l3.44 4.39z"/><path fill="#fff" d="M119.12 163.03H98.88l-11.34-18.32h-37.9l11.62-18.32H80.7l-42.28-71.1h22.84L83.3 19.03l10.26 18.32L83.3 55.29h78.28l-10.26 17.25 19.44 33.74h-19.44l-10.16-17.94-39.98 74.69h17.94z"/><path fill="url(#b)" d="M127.86 79.83H76.14l25.04 42.28 26.68-42.28z"/><defs><radialGradient id="a" cx="0" cy="0" r="1" gradientTransform="rotate(90 0 100) scale(100)" gradientUnits="userSpaceOnUse"><stop stop-color="#665CEE"/><stop offset="1" stop-color="#332E91"/></radialGradient><radialGradient id="b" cx="0" cy="0" r="1" gradientTransform="rotate(90 0 100) scale(100)" gradientUnits="userSpaceOnUse"><stop stop-color="#665CEE"/><stop offset="1" stop-color="#332E91"/></radialGradient></defs></svg>