<svg xmlns="http://www.w3.org/2000/svg" xmlns:xlink="http://www.w3.org/1999/xlink" fill="none" viewBox="0 0 40 40"><defs><path id="a" fill="#F90" d="M34.435 32.294C18.243 40 8.195 33.552 1.762 29.636c-.398-.246-1.075.058-.488.732 2.143 2.599 9.166 8.862 18.334 8.862 9.173 0 14.63-5.006 15.313-5.879.678-.866.2-1.343-.486-1.057Zm4.548-2.512c-.435-.566-2.644-.671-4.035-.5-1.392.165-3.482 1.016-3.3 1.527.093.192.283.106 1.24.02.959-.096 3.646-.435 4.206.297.562.737-.857 4.248-1.117 4.814-.25.566.096.712.567.335.464-.377 1.304-1.353 1.868-2.735.56-1.389.901-3.326.57-3.758Z"/><path id="b" fill="#fff" fill-rule="evenodd" d="M23.548 16.57c0 2.022.051 3.708-.97 5.504-.826 1.46-2.132 2.357-3.592 2.357-1.993 0-3.154-1.518-3.154-3.759 0-4.423 3.964-5.226 7.716-5.226v1.124Zm5.234 12.65c-.343.307-.84.329-1.227.124-1.722-1.43-2.029-2.095-2.978-3.46-2.847 2.905-4.861 3.774-8.555 3.774-4.365 0-7.767-2.694-7.767-8.088 0-4.212 2.285-7.08 5.533-8.482 2.818-1.24 6.753-1.46 9.76-1.803v-.671c0-1.234.095-2.694-.628-3.76-.635-.956-1.847-1.35-2.913-1.35-1.978 0-3.744 1.014-4.175 3.117-.087.467-.43.927-.898.949l-5.036-.54c-.424-.095-.89-.438-.774-1.088C10.284 1.84 15.796 0 20.73 0c2.526 0 5.825.672 7.818 2.584 2.526 2.358 2.285 5.504 2.285 8.927V19.6c0 2.431 1.007 3.497 1.956 4.81.336.468.409 1.03-.015 1.38a219.81 219.81 0 0 0-3.978 3.446l-.014-.015" clip-rule="evenodd"/></defs><use xlink:href="#a"/><use xlink:href="#b" fill-rule="evenodd" clip-rule="evenodd"/><use xlink:href="#a"/><use xlink:href="#b" fill-rule="evenodd" clip-rule="evenodd"/></svg>