<svg xmlns="http://www.w3.org/2000/svg" fill="none" viewBox="0 0 80 80"><path fill="#01A88D" d="M0 0h80v80H0z"/><path fill="#fff" d="m25.428 46.021-12.793-5.086a1 1 0 0 1 0-1.859l17.926-7.111-11.066-11.067 1.414-1.414 12.143 12.142a.999.999 0 0 1-.338 1.637l-17.001 6.744 11.255 4.474-1.54 1.54Zm10.091-19.04 4.484-11.28 6.743 17a1 1 0 0 0 1.637.338l12.142-12.142-1.414-1.414-11.067 11.066-7.11-17.926a1 1 0 0 0-1.86-.001L33.98 25.44l1.54 1.54Zm31.856 12.092-12.817-5.096-1.54 1.54 11.278 4.484-17 6.744a1.002 1.002 0 0 0-.338 1.636L59.1 60.523l1.414-1.414-11.066-11.066 17.927-7.111a1 1 0 0 0 0-1.86Zm-22.89 13.95-4.48 11.272-6.743-17a1 1 0 0 0-1.637-.339L19.482 59.1l1.415 1.414 11.067-11.067 7.11 17.927a1 1 0 0 0 1.86.001l5.092-12.81-1.54-1.54Z"/></svg>