<svg xmlns="http://www.w3.org/2000/svg" fill="none" viewBox="0 0 40 40"><path fill="#fff" d="M4.32 23.942c0 1.506.335 2.662.773 3.361.574.916 1.431 1.304 2.305 1.304 1.126 0 2.157-.275 4.144-2.984 1.59-2.171 3.466-5.219 4.728-7.13l2.136-3.236c1.484-2.248 3.202-4.747 5.172-6.44 1.608-1.383 3.343-2.151 5.088-2.151 2.931 0 5.723 1.675 7.86 4.815 2.338 3.44 3.473 7.773 3.473 12.244 0 2.658-.532 4.61-1.436 6.154-.873 1.492-2.576 2.983-5.44 2.983v-4.255c2.452 0 3.064-2.221 3.064-4.764 0-3.624-.856-7.645-2.744-10.518-1.34-2.038-3.076-3.284-4.985-3.284-2.066 0-3.728 1.536-5.596 4.275-.994 1.455-2.013 3.229-3.158 5.23l-1.26 2.201c-2.532 4.426-3.173 5.434-4.439 7.098-2.219 2.913-4.113 4.017-6.607 4.017-2.959 0-4.83-1.263-5.988-3.167-.946-1.551-1.411-3.587-1.411-5.906l4.32.153Z"/><path fill="#fff" d="M3.405 11.782c1.981-3.01 4.84-5.116 8.118-5.116 1.899 0 3.787.554 5.758 2.14 2.156 1.736 4.454 4.593 7.32 9.301l1.028 1.69c2.482 4.076 3.894 6.173 4.72 7.162 1.063 1.27 1.807 1.648 2.774 1.648 2.452 0 3.064-2.221 3.064-4.764l3.811-.118c0 2.658-.53 4.61-1.435 6.154-.874 1.492-2.576 2.983-5.44 2.983-1.78 0-3.358-.381-5.102-2.004-1.341-1.245-2.91-3.457-4.115-5.446l-3.587-5.909c-1.8-2.965-3.452-5.176-4.407-6.177-1.028-1.077-2.35-2.377-4.458-2.377-1.707 0-3.157 1.181-4.37 2.987l-3.679-2.154Z"/><path fill="#fff" d="M11.454 10.95c-1.707 0-3.156 1.18-4.37 2.986C5.37 16.49 4.32 20.291 4.32 23.942c0 1.506.336 2.662.774 3.361L1.41 29.695c-.946-1.551-1.411-3.587-1.411-5.906 0-4.217 1.174-8.613 3.407-12.007 1.98-3.01 4.839-5.116 8.117-5.116l-.07 4.283Z"/></svg>