<svg xmlns="http://www.w3.org/2000/svg" fill="none" viewBox="0 0 600 600"><g clip-path="url(#a)"><path fill="#F4F3F3" d="M600 0H0v600h600V0Z"/><g fill="#1D1C1B" clip-path="url(#b)"><path d="M307.197 254.531h-118.2a5.199 5.199 0 0 0-5.2 5.197v6.995a5.199 5.199 0 0 0 5.2 5.197h118.2c2.872 0 5.2-2.327 5.2-5.197v-6.995a5.199 5.199 0 0 0-5.2-5.197Zm-145.797 0h-60.2a5.199 5.199 0 0 0-5.2 5.197v6.995a5.199 5.199 0 0 0 5.2 5.197h60.2c2.872 0 5.2-2.327 5.2-5.197v-6.995a5.199 5.199 0 0 0-5.2-5.197Zm258.203 0h-70.2a5.199 5.199 0 0 0-5.2 5.197v6.995a5.199 5.199 0 0 0 5.2 5.197h70.2c2.872 0 5.2-2.327 5.2-5.197v-6.995a5.199 5.199 0 0 0-5.2-5.197Zm-.006-24.983h-58.6a5.199 5.199 0 0 0-5.2 5.197v6.995a5.199 5.199 0 0 0 5.2 5.197h58.6c2.872 0 5.2-2.327 5.2-5.197v-6.995a5.199 5.199 0 0 0-5.2-5.197Zm63.6 0h-44.2a5.199 5.199 0 0 0-5.2 5.197v6.995a5.199 5.199 0 0 0 5.2 5.197h44.2c2.872 0 5.2-2.327 5.2-5.197v-6.995a5.199 5.199 0 0 0-5.2-5.197Zm-15.595-25.582h-51.8a5.198 5.198 0 0 0-5.2 5.196v6.996a5.198 5.198 0 0 0 5.2 5.196h51.8c2.871 0 5.2-2.326 5.2-5.196v-6.996a5.198 5.198 0 0 0-5.2-5.196Zm-24.199-24.983h-8a5.198 5.198 0 0 0-5.2 5.196v6.996a5.198 5.198 0 0 0 5.2 5.196h8c2.872 0 5.2-2.326 5.2-5.196v-6.996a5.198 5.198 0 0 0-5.2-5.196Zm-70.601 24.983h-8a5.198 5.198 0 0 0-5.2 5.196v6.996a5.198 5.198 0 0 0 5.2 5.196h8c2.871 0 5.2-2.326 5.2-5.196v-6.996a5.198 5.198 0 0 0-5.2-5.196Zm-101.6 175.08h-21.4a5.199 5.199 0 0 0-5.2 5.197v7.595a5.198 5.198 0 0 0 5.2 5.196h21.4c2.871 0 5.2-2.326 5.2-5.196v-7.595a5.2 5.2 0 0 0-5.2-5.197Zm44 0h-10.4a5.199 5.199 0 0 0-5.2 5.197v7.595a5.198 5.198 0 0 0 5.2 5.196h10.4c2.871 0 5.2-2.326 5.2-5.196v-7.595a5.2 5.2 0 0 0-5.2-5.197Zm65.598 0h-45.6a5.199 5.199 0 0 0-5.2 5.197v7.595a5.198 5.198 0 0 0 5.2 5.196h45.6c2.872 0 5.2-2.326 5.2-5.196v-7.595a5.199 5.199 0 0 0-5.2-5.197Zm-4.8-24.983h-12.8a5.199 5.199 0 0 0-5.2 5.197v7.595a5.198 5.198 0 0 0 5.2 5.196H376c2.872 0 5.2-2.326 5.2-5.196v-7.595a5.199 5.199 0 0 0-5.2-5.197Zm-162.003 24.983h-8a5.199 5.199 0 0 0-5.2 5.197v7.595a5.198 5.198 0 0 0 5.2 5.196h8c2.872 0 5.2-2.326 5.2-5.196v-7.595a5.199 5.199 0 0 0-5.2-5.197Zm71.401 30.18c0-2.798 2.2-5.197 5.2-5.197h8c2.8 0 5.2 2.199 5.2 5.197v7.794c0 2.799-2.2 5.197-5.2 5.197h-8c-2.8 0-5.2-2.199-5.2-5.197v-7.794Zm-5.596 19.786h-7a5.199 5.199 0 0 0-5.2 5.197v7.594a5.199 5.199 0 0 0 5.2 5.197h7a5.2 5.2 0 0 0 5.2-5.197v-7.594a5.2 5.2 0 0 0-5.2-5.197ZM354.397 154h-12.4a5.198 5.198 0 0 0-5.2 5.196v6.996a5.198 5.198 0 0 0 5.2 5.196h12.4c2.872 0 5.2-2.326 5.2-5.196v-6.996a5.198 5.198 0 0 0-5.2-5.196Zm-93.995 75.548h-47.6a5.199 5.199 0 0 0-5.2 5.197v6.995a5.199 5.199 0 0 0 5.2 5.197h47.6a5.2 5.2 0 0 0 5.2-5.197v-6.995a5.2 5.2 0 0 0-5.2-5.197Zm84.996-50.565h-24.8a5.198 5.198 0 0 0-5.2 5.196v6.996a5.198 5.198 0 0 0 5.2 5.196h24.8c2.872 0 5.2-2.326 5.2-5.196v-6.996a5.198 5.198 0 0 0-5.2-5.196Zm.004 24.983h-46.6a5.198 5.198 0 0 0-5.2 5.196v6.996a5.198 5.198 0 0 0 5.2 5.196h46.6c2.871 0 5.2-2.326 5.2-5.196v-6.996a5.198 5.198 0 0 0-5.2-5.196Zm153.395 50.565h-22.8a5.199 5.199 0 0 0-5.2 5.197v6.995a5.199 5.199 0 0 0 5.2 5.197h22.8c2.872 0 5.2-2.327 5.2-5.197v-6.995a5.199 5.199 0 0 0-5.2-5.197Zm-182.594 24.983h-153.8a5.199 5.199 0 0 0-5.2 5.197v6.995a5.198 5.198 0 0 0 5.2 5.196h153.8c2.872 0 5.2-2.326 5.2-5.196v-6.995a5.199 5.199 0 0 0-5.2-5.197Zm49 49.966h-53.8a5.199 5.199 0 0 0-5.2 5.197v6.995a5.198 5.198 0 0 0 5.2 5.196h53.8c2.872 0 5.2-2.326 5.2-5.196v-6.995a5.199 5.199 0 0 0-5.2-5.197Zm21.994-24.983h-198.2a5.199 5.199 0 0 0-5.2 5.197v6.995a5.198 5.198 0 0 0 5.2 5.196h198.2c2.872 0 5.2-2.326 5.2-5.196v-6.995a5.199 5.199 0 0 0-5.2-5.197Zm-163 24.983h-67.2a5.199 5.199 0 0 0-5.2 5.197v6.995a5.198 5.198 0 0 0 5.2 5.196h67.2c2.872 0 5.2-2.326 5.2-5.196v-6.995a5.199 5.199 0 0 0-5.2-5.197Zm18.605 24.583h-15a5.199 5.199 0 0 0-5.2 5.197v7.595a5.198 5.198 0 0 0 5.2 5.196h15c2.871 0 5.2-2.326 5.2-5.196v-7.595a5.2 5.2 0 0 0-5.2-5.197Zm91.601 0h-17a5.199 5.199 0 0 0-5.2 5.197v7.595a5.198 5.198 0 0 0 5.2 5.196h17c2.872 0 5.2-2.326 5.2-5.196v-7.595a5.199 5.199 0 0 0-5.2-5.197Zm-138.201 0h-15.4a5.199 5.199 0 0 0-5.2 5.197v7.595a5.198 5.198 0 0 0 5.2 5.196h15.4c2.871 0 5.2-2.326 5.2-5.196v-7.595a5.2 5.2 0 0 0-5.2-5.197Zm209.001-74.549h-55.8a5.199 5.199 0 0 0-5.2 5.197v6.995a5.198 5.198 0 0 0 5.2 5.196h55.8c2.872 0 5.2-2.326 5.2-5.196v-6.995a5.199 5.199 0 0 0-5.2-5.197Z"/></g></g><defs><clipPath id="a"><path fill="#fff" d="M0 0h600v600H0z"/></clipPath><clipPath id="b"><path fill="#fff" d="M96 154h408v293H96z"/></clipPath></defs></svg>