<svg xmlns="http://www.w3.org/2000/svg" viewBox="128.44 50.44 1787.12 1953.12"><path fill="#1a2430" d="m1453.43 88.19.53.05c.89 1.79-2.44 11.96-3.26 14.62a236.74 236.74 0 0 0-10.12 59.26c18.46-8 34.64-14.4 53.43-21.55-1.1 1.6-2.16 3.23-3.18 4.88-22.2 35.98-36.03 77.57-26.23 119.76 29.76 9.01 76.71 35.53 98.79 56.2 11.43 10.7 23.92 25.11 34.24 37.1 15.99-9.34 49.7-23.55 67.78-20.02-6.63 3.01-13.44 2.02-20.05 3.81-14.69 4-32.48 11.16-45.69 18.68 1.89 4.02 4.39 8.1 6.63 11.96 26.04-12 51.61-17.4 79.7-11.06-34.84-.86-45.98 2.05-77.58 14.63 1.71 2.49 3.64 4.71 5.57 7.04 23.22-2.78 61.14-5.58 82.38 5.46-33.72-6.1-44.63-6.06-78.58-2.38 34.68 22.54 109.31 124.37 132.01 161.05a854.57 854.57 0 0 1 107.05 645.04 844.46 844.46 0 0 1-377.22 524.27c21.05 32.39 20.52 45.02 20.38 85-22.19 1.06-51.55.2-74.31.15l-138.64-.46-320.98-.34-235.59-.19-66.3.07c-38.18.07-91.56 3.03-98.64-47.36-23.01-21.91-51.44-23.45-81.93-22.18-44.44 2.16-88.15 9.54-128.82 28.9-18.93 9.02-56.72 30.7-56.5 56.19.07 6.92 6.74 15.52 12.18 19.5 57.65 42.11 145.05 31.29 210.43 24.05 86.6-10.29 173.21-16.61 258.14 8.88 28.4 8.52 77.07 27.1 64.75 66.99-2.5 8.1-11.55 16.39-19.47 19.37-32.07 11.31-71.93-3.13-104.91-9.06-84.8-15.23-162.76 6.67-246.43 16.19-58.84 6.69-123.97 5.84-180.1-15.77-44.18-17.01-83.17-44.5-102.04-89.68-15.14-35.44-13.47-74.34.84-109.77 37.46-86.03 137-121.77 215.92-155.25a946.45 946.45 0 0 1-137.19-184.31c-14.01-24.72-30.22-60.79-40.94-87.15a857.97 857.97 0 0 1-30.95-553.51 858.84 858.84 0 0 1 413.18-521.19 804.9 804.9 0 0 1 141.23-60.42c172.97-55.79 352.91-54.65 527.42-5.35 55.59-50.53 101.5-73.84 173.07-92.1z"/><path fill="#f90" d="M1014.66 170.47c80.16-2.73 167.19 12.46 244.84 31.7-10.41 14.05-19.54 28.47-29.09 42.96-3.04 4.62-13.26 21.47-16.12 24.28-14.27 14.04-30.04 26.03-44.63 40.4a546.9 546.9 0 0 0-106.34 143.97 521.96 521.96 0 0 0-32.51 80.23c-20.91 67.17-31.55 134.16-83.29 188.49-9.14-8.49-36.76-37.26-44.55-42.15-10.55-.9-28.42-.74-39.47-.9-24.86-.37-49.72-.52-74.58-.43-15.1 12.71-30.2 28.2-44.49 42.04l-69.23 66.65c-15.27 14.87-32.23 32.46-48.03 46.31-33.22 2.72-68.84-.13-102.33 1.14-19.35.74-22.28 5.64-35.62 18.54-22.3 21.53-43.75 43.92-65.32 66.17-28.45 1.05-61.77.11-90.53.02l-134.98.37c1.11-33.44 8.69-72.76 16.91-105.13 66.37 1.54 135.55.67 202.22.88 11.1-9.01 35.8-37.27 48.66-49.8 26-.65 52.7.06 78.76-.38 14.3-.23 27.99.37 42.3-1 5.73-4.7 15.14-14.68 20.7-20.14a2375.99 2375.99 0 0 0 47.55-47.58c51.7-52.15 108.98-112.33 162.67-161.49 21.65 7.43 40.31 1.72 52.03-19.42 4.56-8.22 2.27-19.36-.7-27.79-7.48-21.24-30.51-28.91-50.62-20.58a39.26 39.26 0 0 0-21.56 22.05c-3.83 10.04-2.94 17.52 1.2 27L609.78 706.7c-9.45 9.9-24.87 26.76-35.32 34.95-25.43 1.09-53.43-.18-79.07.2-13.5.2-26.04-.82-39.75.33-11.37 8-35.62 37.17-48.12 48.78-61.25 1-125.43-.06-186.85-.11 3.92-18.6 16.88-60.7 23.97-77.8 32-.7 64.98.53 97.53-.04 4.35 7.15 7.87 12.48 14.84 17.38a39.87 39.87 0 0 0 30.27 6.45c10.51-1.95 19.77-8.42 25.76-17.2a37.73 37.73 0 0 0 5.92-29.41c-4.99-23.3-28.12-35.94-50.62-29.22-14.2 4.23-20.36 14.87-26.85 26.96a2071 2071 0 0 1-86.7.11c4.54-14.78 22.57-53.86 30.01-68.58 21.58-1.48 54.1-.46 76.45-.5 36.12-.15 72.23-.67 108.34-1.54 16.2-.25 32.34.2 48.51-.38 44.64-46.07 91.49-91.15 137.4-135.98 10.24-10 25.9-24.66 34.4-35.7.2-22.32.26-44.65.22-66.98 10.4-4.11 18.6-10.74 23.6-20.96a36.96 36.96 0 0 0 1.74-28.17c-18.28-52.8-98.27-22.51-71.88 30.56 4.67 9.4 11.23 14.38 21.05 17.66-.2 19.6-.52 39.19-.99 58.78a560.82 560.82 0 0 0-16.55 15.75c-46.98 46.96-94.03 93.3-140.24 141.03-8.6.3-17.43.34-26.04.36-60.49.12-121.31 1.2-181.76.43 4.34-10.8 12.24-22.7 18.5-32.66A881.35 881.35 0 0 1 427.38 422c159.42-164.61 359.25-247.78 587.29-251.53z"/><path fill="#f90" d="m1391.86 128.96.67.61c-.84 2.6-20.77 22.18-24.55 26.35-64.77 71.58-114.94 132.4-88.08 234.7 1.57-26.35-.47-51.67 4.13-77.97 4.49-25.7 14.25-47.41 28.32-69.18 2.33-3.62 7.58-11.86 10.98-14.25-1.47 3.84-8.49 15.06-11.12 19.69-15.29 26.86-24.65 58.27-19.82 89.3 1.24 7.94 4.7 18.9 7.04 26.93 13.51-28.66 36.43-32.62 63.21-45.2 5.89-2.78 12.14-4.8 17.6-8.4-3.34-5.9-4.57-8.5-6.32-15.05a638.63 638.63 0 0 0 22.47-11.21c-8.01-4.6-16.02-9.08-23.74-14.16 4.05-3.93 8.93-8.14 13.16-11.98-8.69-3.75-14.82-5.7-23.93-8.51 7.41-8.06 13.81-14.85 22.68-21.29-14.38-6.42-23.02-5.25-35.87 2.91 11.26-41.31 36.49-68.07 68.9-94.77l-.07.97-.15 1.6c-1.79 21-9.29 43.59-10.94 66.53-2.42 33.83 5.27 45.45 24.44 72.9 6.79 9.71 13.44 19.6 21.09 28.67a329.29 329.29 0 0 1-8.18-22.93c55.9 16.25 120.74 52.15 144.45 107.75 7.84 18.39 12.39 38.42 18 57.71 10.6 36.41 23.19 56.86 44.26 87.28-10.78-1.7-32.01-2.52-43.26-3.22 9.38 11.65 31.59 24.97 26.24 40.29-5.83 16.7-19.76 28.3-34.79 36.6-8.1-2.05-12.48-3-20.73-4 4.65 3.06 9.07 5.09 14.04 7.53-44.37 29.03-57.08 30.28-107.47 15.12 24.17-24.1 35.13-33.65 65.68-49.05-1.8-.11-9.32-.55-10.77-.3-23.05 4-46.91 32.03-61.23 48-19.15-4.62-41.39-11.24-60.2-14.5 21.88-18.52 67.1-43.74 94.48-51.55 11.49-3.27 24.75-3.98 36.59-3.7-8.65-3.88-13.65-5.71-23.51-6.24-31.35-1.68-89.89 38.77-111.94 59.9-49.44-7.69-114.08-22.14-157.66-47.46-35.74-20.76-57.77-54.16-67.75-93.87-5.85 96.78 48.6 122.43 129.52 150.8-39.8 3.42-54.32-2.55-89.98-19.6 12.65 10.35 30.86 24.8 41.61 36.95 28.79 32.52 52.65 75.27 64.92 116.87 4.95 16.8 7.76 33.93 11.82 50.53.77-39.23-8.18-91.57 7.63-129.2 3.65-8.7 20.75-37.11 29.3-40.34-.79 4.57-8.65 15.42-11.22 20.8-9.91 20.7-14.36 50.92-14.07 73.56 1.39 107.42 64.68 138.72 21.72 254.37-18.98 48.74-51.93 95.44-86.46 134.63-12.84 14.58-28.71 28.03-41.97 42.33-2.09 14.79-6.96 29.55-11.41 43.81a456 456 0 0 0 100.06-101.69c9.18-12.99 19.67-32.72 28.79-44.16l.89-1.1c-14.53 51.76-68.59 108.78-103.76 149.95-14.15 16.57-35.93 42.17-43.16 62.91-19.34 55.44 44.03 291.94 65.1 355.29a465.74 465.74 0 0 0 22.66 55.79c-6.25-2.51-11.19-5.18-16.08-9.88-28-26.96-90.71-297.28-96.49-347.18-1.81-15.61.3-31.88 2.48-47.39 2.64-18.76 7.3-52.98 13.57-70.2 4.63-12.74 12.63-24.83 18.47-37.13 19.91-41.91 28.74-83.54 27.26-130.02-7.84 44.91-36.59 127.89-64.95 163.75-30.57-13.98-58.88-25.8-89.53-38.97-24.77 35.87-54.12 71.15-78.18 107.9a649.53 649.53 0 0 1-13.6-15.62c19.98-21.75 64.22-86.38 77.17-111.7-4.62-9.4-19.7-37.91-25.52-44.7 16.39-40.14 23.87-71 24.51-114.44 1.63-109.48-26.19-192.21-101.56-271.49 31.97-56.98 45.67-100.82 63.24-163.82 28.14-100.94 88.13-182.9 165.29-252.64-4.74 32-3.21 40.54.74 71.97 9.86-113.83 75.17-193.5 174.84-243.49z"/><path fill="#1a2430" d="M1478.44 366.3c84.37-10.11 68.45 94.13 93.92 143.74-18-3.7-30.04-4.68-48.41-5.23-24.63-.74-44.11 3.71-67.31-5.5-20.69-12.67-33.21-38.76-48.01-57.91-19.13-24.75-33.48-39.16-59.59-55.61 18.45 3.03 51.31 2.12 68.82-3.04 21.18-6.23 38.34-12.84 60.58-16.45z"/><path fill="#f90" d="M1483.28 372.35c21.6-1.78 38.26 5.08 47.16 25.66 13.69 31.67 20.06 66.22 25.17 100.16-13.29-.65-26.71-2.15-40.12-2.65-12.51-.47-26.05.01-38.35-1.45-31.09-7.37-38.52-27.57-54.72-52.72-8.17-12.69-16.78-26.98-21.58-41.28 29-10.95 49.87-24.16 82.44-27.72z"/><path fill="#1a2430" d="M1478.14 381.36c41.75-3.4 47.93 17.71 58.37 53.27 5.67 19.33 9.49 39.41 14.24 59-22.08-3.83-36.08-4.94-58.5-6.35-24.55-.62-37.7-12.2-50.7-31.4a555.63 555.63 0 0 1-31.36-52.74c23.7-9.72 42.32-18.51 67.95-21.78z"/><path fill="#f90" d="M1482.94 397.06c27.2-2.13 34.88 24.96 14.45 35.78-15.44 1.73-27.39-4.2-25.14-23.33.67-5.72 5.7-9.79 10.69-12.45z"/><path fill="#1a2430" d="M1177.84 348.9c-.01 4.93-3.84 16.59-5.19 22.11-5.25 21.5-12.76 44.74-23.16 64.17-9.49 17.7-22.01 34.5-32.04 51.86 8.39-26.96 17.12-47.47 26.98-73.56-28.32 34.76-57.29 94.73-71.31 137.58-7.84 23.52-13.65 45.35-19.08 69.45l-.58 1.87.42-1.12-.49-.66c7.73-107.49 57.07-190 124.45-271.7z"/><path fill="#f90" d="M976.17 730c23.64 26.26 42.93 51.71 58.49 83.86 45.4 93.84 51.95 206 4.31 300.48-8.64 17.14-21.88 33.33-32.1 49.54-18.36 29.12-30.62 59.26-41.4 91.69-49.77-35.96-87.16-57.47-150.46-40.09a189.03 189.03 0 0 1 111.57 42.04c97.59 79.66 148.6 266.64 63.14 372.65-52.74 65.41-144.15 81.36-223.73 87.83 39.92 9.74 97.74 6.41 138-1.96 30.7-6.38 62.13-14.75 93.92-12.51 23.75 2.17 51.71 9.5 68.03 28.03 6.58 7.48 24.73 39.97 14.48 46.74-8.95-.86-9.21-14-12.09-19.97-7.67-15.97-24.23-23.01-39.78-28.69 20.06 14.5 25.14 23.7 29.96 47.72-10.44.2-21.61-.04-32.11-.1-12.41-28.64-21.41-37.33-52.6-43.16 20.7 12.42 25.83 19.51 34.12 42.05-31.42.55-64.57 0-96.17.05l-163.23.06c-24.2.02-117.87 2.92-136.31-3.72-11-3.96-18.05-10.27-23-20.81 4.98-22.43 1.81-38.14-15.12-54.8-10.62-10.47-25.37-15.5-34.13-27.92-18.84-26.73-3.1-48.33 7.22-74.04 28.96-81.14 13.74-169.86 26.73-254.09 32.07 21.16 72.35 62.26 97.64 91.71-13.6 53.15 20.92 102.08 76.8 100.55a74.72 74.72 0 0 0 52.35-23.37c49.74-52.6 12.17-134.66-59.75-130.97-26.12 1.34-42.45 13.87-59.5 32.61-4.48-12.81-6.3-26-6.48-39.42-1.02-75.93 58.31-133.28 123.57-161.93 60.91-26.75 96.88-25.18 146.7-76.25a236.5 236.5 0 0 0 66.03-167.71c-.7-54-17.11-110.46-50.46-153.24-8.51-10.92-18.42-20.64-28.32-30.28 14.99-16.55 28.58-36.35 43.68-52.57z"/><path fill="#1a2430" d="M918.65 1287.53c6.39 2.68 16.33 13.79 21.04 19.16a278.77 278.77 0 0 1 60.03 112.56c11.16 42.11 10.6 91.33-.1 133.65-19.64 77.75-91.82 123.96-165.86 143.58a191.24 191.24 0 0 1-18.64 3.17c35.52-14.18 71.2-32.92 100.4-57.77 82.04-69.83 94.35-190 50.33-284.28-12.83-27.47-27.21-47.35-47.2-70.07z"/><path fill="#1a2430" d="M970.21 1437.79c7.43 18.2 8.06 62.39 4.15 81.99-11.33 56.77-36.19 90.89-81.96 123.41l-2.78 1.34c-.03-2.22 8.76-11.04 11.01-13.56a304.68 304.68 0 0 0 44.24-63.5c20.64-40.37 26.91-84.85 25.34-129.68zm2.84-678a22.74 22.74 0 1 1 11.21 44.08 22.74 22.74 0 0 1-11.21-44.08zm60.24 193.28a21.7 21.7 0 1 1 8.14 42.6 21.7 21.7 0 0 1-8.14-42.6zm-11.3-99.4a21.3 21.3 0 1 1 7.89 41.88 21.3 21.3 0 0 1-7.89-41.87z"/><path fill="#f90" d="M1624.68 431.55c9.23 4.9 34.11 36.53 41.64 45.87a823.43 823.43 0 0 1 162.99 331.89c-5.69 8.45-30.47 33.05-38.73 41.57-36.42 37.25-73.35 74-110.77 110.25l-228.97 227.41c-36.13 36.02-73.02 71.64-108.63 108.07-3.75 3.7-8.01 7.55-11.89 11.18 4.11-97.69 46.93-187.37 68.73-281.51 10.47-45.23 24.06-92.74 17.86-139.3-6.95-52.17-36.57-98.32-36.14-151.95 0-35.63 6.89-68.27 32.73-95.11 14.09 1.02 37.8 6.26 51.58 9.77-4.27 9.5-22.4 46.84-19.56 55.97 7.53-22.1 14.17-34.19 24.71-54.86 19.6 4.97 75.47 12.49 93.46 5.3 14.83-5.93 41.53-26.55 58.49-34.38 22.07-10.18 48.1-65.43 53.39-88.22-4.09-11.3-14.13-22.63-20.85-32.88-11.03-16.82-26.25-49.33-30.04-69.07zm16.83 721.13c65.16.13 131.46-.59 196.51.3a799.13 799.13 0 0 1-18.93 79.16c-49.48 1.35-100.38-1.03-149.96-.17-8.75 5.26-23.92 22.03-32.06 29.84-25.72 24.68-50.28 51.11-76.09 75.62-1.44 23.73-1.1 46.03-1.15 69.7-49.77 24.62-21.87 87.91 22.27 75.86 33.18-9.06 43.23-56.63 3.78-74.88.24-19.98.61-39.96 1.13-59.94 19.1-19.9 40.21-39.76 59.7-59.4 7.28-7.34 26.62-26.66 33.7-31.47 14.5-.62 32.68.01 47.61.05 27.31.05 54.62-.08 81.93-.39-2.81 12.28-9 27.59-13.64 39.44a786.82 786.82 0 0 1-44.41 95.75 800.8 800.8 0 0 1-247.92 275.5c-14.75 10.17-35.57 25.29-51.01 33.27-23.13-12.14-39.47-13.12-64.96-15.66-23.96-52.43-47.24-170.77-52.05-227.7a28060.6 28060.6 0 0 1 305.55-304.88zM926.77 790.71c15.17 14.65 39.08 57.31 46.51 75.71 24.07 59.62 27.1 125.24 3.3 185a216.57 216.57 0 0 1-35.61 60.15c-42.64 51.51-84.05 54.45-143.12 78.02-80.35 32.06-158.3 116.26-136.89 208.99l-6.63-6.57c-28.48-28.49-45.02-45.33-79.56-66.07 16.7-119.82 47.5-207.25 114.99-309.61 27.4-41.58 56.12-79.93 95.36-111.7 48.9-39.61 98.3-66.09 141.65-113.92z"/><path fill="#1a2430" d="M891.51 886.34c5.58-.4 12.8-.34 17.34 3 16.2 12.66 30.23 33.51 34.86 53.55 20.27 87.78-35.87 161.54-120.11 182.78-28.52 7.18-53.46 5.28-78.69-10.04-20.54 19.49-40.7 51.15-56.25 74.86-5.04 8.15-9.32 16.78-13.71 25.3-4.2-.66-10.17-.71-14.55-.88 2.64-3.95 5.54-9.56 7.77-13.86 17.9-34.52 39.33-65.63 66.3-93.9-35.36-48.82-11.86-92.02 21.1-135.61 30.27-40.03 84.95-78.99 135.94-85.2z"/><path fill="#f90" d="M888.57 903.32c11.03-1.1 19.19 4.21 25.13 13.32 33.7 51.7 15.67 131.58-35.3 165.53-30.92 20.6-63.7 36.04-101.3 29.46-21.13-4.81-42.22-21.48-44.06-43.58-4.9-58.96 56.51-123.55 105.54-147.91 16.5-8.2 32.5-14.25 49.99-16.82z"/><path fill="#1a2430" d="M869.65 948.24c12.9-1.71 27.3 2.47 18.04 18.64-5.94 10.37-14.32 15.86-18.76 27.97-6.44 17.53 11.69 22.09 7.8 38.66-3.39 10.35-24.4 20.46-33.45 25.22-8.47 4.08-20.51 10.41-29.2 7.5l-8.7-7.07c-4.24-.45-10.91-.93-14.7-2.68-16.72-7.54-11.38-28.34-1.6-39.49 16.73-19.1 33.4-39.02 53.56-54.68 9.13-7.1 16-10.83 27.01-14.07zm-202.77 170.62c-.35 4.21-7.44 25.31-8.97 30.37-9.48 31.54-22.79 65.31-31.16 97.06a291.65 291.65 0 0 0-9.28 60.68c-.26 5.66.55 19.72.31 22.29l-1.26-1.55c-17.44-52.37 4.67-111.1 25.82-159.09 7.44-16.87 14.65-34.16 24.54-49.76zm-10.02 111.34a22.17 22.17 0 1 1 11.17 42.92 22.17 22.17 0 0 1-11.17-42.92zm96.8-75.64a21.5 21.5 0 1 1 11.37 41.48 21.5 21.5 0 0 1-11.38-41.48zm133.63-46.84a19.1 19.1 0 1 1 11.18 36.56 19.12 19.12 0 0 1-11.18-36.56z"/><path fill="#f90" d="M797.4 705.32c26.81-1.68 69.48-.33 97.61-.24 11.8 11.16 20.14 22.64 33.3 33.8-34.05 31.61-77.22 54.49-116.5 79.37a579.77 579.77 0 0 0-151.86 140.64c-22.7 2.96-67.35.87-92.78 2.26-11.12 6.76-58.64 54.88-71.01 66.83-17.97-.19-51.58-1.33-68.28 1.3-9.58 6.55-40.94 38.47-50.32 47.74-33.8 33.88-67.82 67.55-102.06 101a2610 2610 0 0 1-50.22 49.16c-1.5-6.61-3.52-13.37-5.41-19.89-24.98-85.79-28.04-172.99-24.46-261.43 15.95-1.77 56.38-.63 73.62-.6l144.55-.17c20.01-.2 21.37-3.26 35.51-16.63a2659.73 2659.73 0 0 0 68.82-67.5c30.23-4.33 85.56.88 115.95-2.8 8.1-.97 43.1-37.22 52.06-45.9l81.3-79.03c8.3-8.04 21.13-21.55 30.17-27.91zm130.23 64.89c-.47 2.5-6.35 8.22-8.48 10.66-32 36.56-74.13 59.76-111.48 88.48a659.3 659.3 0 0 0-54.31 46.1c-94.3 90.59-162.67 232.71-186.32 360.73-6.68 41.66-10.63 82.41-13.51 124.64-4.7 68.84 3.72 151.38-32.73 212.96-21.14 35.73-66.97 47.77-102.7 62.57-50.41 20.88-107.99 47.31-139.47 93.95a495.5 495.5 0 0 1 20.87-16.17c54.57-39.35 157.52-68.76 224.77-58.38 22.17 3.42 37.43 13.11 50.46 31.12-3.87-2.77-8.24-6.42-12.5-8.55-26.33-13.1-66.33-14.72-95.93-12.92-57.87 3.52-135.97 26.53-177.08 68.43-10.59 10.78-17.28 29.92-15.8 44.61 1.55 15.47 11.06 30.36 23.34 39.73 70.4 53.72 197.03 30.52 278.17 22.1 68.36-5.86 141.16-5.43 206.98 16.38 11 3.64 39.88 13.73 40.76 28.56.14 2.23-3.2 7.96-5.43 8.6-32.81 9.5-70.42-10.71-104.06-13.29-35.61-3.71-64.52-5.84-98.43-2.53-85 8.3-169 32.23-255 19.78-48.5-7.02-103.14-26.57-132.95-67.61-17.7-23.88-25-53.9-20.24-83.25 12.23-74.46 88.9-119.29 152.84-146.86 26.15-11.28 68.11-24.41 90.23-41.32 63.76-48.76 65.41-163.1 77.87-235.78 15-87.47 33.35-175.31 71.74-255.92 21.32-44.79 46.55-85.32 75.05-125.71 30.19-44.41 67.92-80.77 109.77-114.1 29.17-23.24 60.24-41.37 91.87-60.95 17.52-10.85 35-23.86 51.7-36.06zm182.79 417.72c9.18 2.14 26.05 10.29 35.67 14.53a1176.73 1176.73 0 0 0 47.04 19.57c-4.64 24.35-9.33 48.81-11.32 73.55-1.62 20.18 1.01 39.31 4.29 59.16 8.31 50.15 65.71 297.55 90.99 328.4 24.84 30.31 63.03 14.58 88.58 45.52 7.3 8.84 18.72 36.17 17.29 47.07-.25 1.91.02 1.13-1.84 2.5-5.5-.05-9.15-17.29-12.52-23.48-8.72-16.03-18.18-23.48-33.48-32.92 15.11 20.55 22.48 31.59 25.87 56.98-11.01.19-22.36.1-33.39.14-5.16-29.01-15.45-38.37-41.61-49.65 17.22 15.65 22.64 26.29 24.54 49.47-54.31 2.73-83.51 3.33-113.44-47.65-16.24-29.84-28.44-71.96-40.99-104.25-22.71-58.45-43.57-117.63-64.86-176.58-17.14-47.45-29.46-93.41-58.41-135.95-14.98-22.01-30.48-35.78-49.57-53.94 2.1-4.85 4.67-9.56 7.12-14.25 13.14 15.75 31.25 32.16 43.15 47.85 36.09 47.53 64.4 115.42 83.12 171.79-3.45-41.87-24.5-93.03-35.89-133.51-3.45-12.28-22.65-55.72-17.92-66.96 10.39-24.71 31.83-55.13 47.58-77.39zm726.39-347.02c1.97 3.42 5.24 27.8 5.98 33.08 11.26 79.9 13.85 173.95.05 253.74-52.68.34-105.72-1.87-158.44-1.26-16.8.2-33.41.47-50.22-.41-15.38 11.75-32.41 30.97-46.66 44.56a3182.81 3182.81 0 0 0-66.97 66.02 17567.71 17567.71 0 0 1-179.76 178.28l-7.72 7.23c-3.42-24.1-4.42-50.8-4.26-75.13 7.71-8.53 20.66-20.33 29.18-28.85l65.42-65.84a21476.7 21476.7 0 0 1 256.04-254.53l103.68-103.05c17.77-17.8 36.43-35.68 53.68-53.84z"/><path fill="#f90" d="M490.37 1139.12c22.42-.33 44.85.14 67.23 1.43-25.33 56.92-37.24 123.1-49.79 184.25-14.68 71.56-15.06 151.03-45.89 218.26-6.29 13.72-17.45 26.78-28.5 36.81a733.12 733.12 0 0 1-46.22-49.32c-41-48.71-89.66-120.03-114.6-179.08l140.02-136.98 47.46-46.92c8.38-8.25 21.4-21.63 30.3-28.45z"/><path fill="#f90" d="M576.48 984.29c20.33.73 41.41.64 61.81.82-26.34 42.12-50.26 83.31-70.1 128.99-28.25.89-59.96-.57-87 1.15l-.86.53c-10.65 6.56-37.53 34.61-48.44 44.82-51.52 48.26-101.24 101.8-153.68 148.76l-16.13 16.55c-7.05-12.56-25.28-57.4-28.94-70.77 68.94-66.81 135.82-136.59 205.17-202.13 20.82-.13 46.5.39 66.82-1.2 4.31-2.7 8.1-6.08 11.77-9.6 19.97-19.2 39.24-39.11 59.58-57.92zm758.36 174.5c1.09 6.65-17.13 65.59-19.87 78.67-9.37 44.76-11.29 90.54-9.17 136.12a993.48 993.48 0 0 0 9.18 96.51c6.28 42.86 36.63 200.5 62.66 225.2 16.35 15.53 54.15 8.31 79.5 31.8 14.97 13.87 19.44 32.28 20.04 51.96l-15.77-.12c-2.73-18.5-7.49-29.61-22.42-41.06-3.63-1.94-3.91-2.12-7.83-3.24l-1.06.9c13.49 16.42 15.15 22.48 16.06 44.11-13.06.35-26.49-.38-39.57-.86-4.49-46.42-16.17-61.9-55.42-85.14a248.93 248.93 0 0 1-9.91-30.15c-20.6-80.46-37.13-162.75-47.42-245.11-9.5-76.01-13.96-154.43 21.62-224.99 5.86-11.61 11.67-24.19 19.38-34.6zM744.17 1393.4a62.44 62.44 0 1 1 3.2 124.84 62.44 62.44 0 0 1-3.2-124.84z"/><path fill="#1a2430" d="M738.8 1430.97a24.35 24.35 0 1 1 13.43 46.81 24.35 24.35 0 0 1-13.43-46.81z"/><path fill="#f90" d="M1122.74 1599.88c4 4.84 27.62 72.79 30.85 82.34-24.79 1.16-51.92.65-76.84.5a957.9 957.9 0 0 1-30.32-.39c20.25-23.95 53.74-60.52 76.31-82.45zm-65.27-476.59c4.95 7.93 9.4 16.44 13.87 24.68-4.67 9.97-14.31 25.68-20.1 35.2-15.16 24.89-28.08 45.62-40.51 72.23l-1.36.11a1188.83 1188.83 0 0 1-16.67-16.49c7.4-15.82 18.25-32.62 27.66-47.4 14.93-23.45 26.35-42.68 37.11-68.33zm509.42 298.72a23.9 23.9 0 0 1 10.61 46.63 23.92 23.92 0 1 1-10.61-46.63zM670.32 319.73a22.21 22.21 0 1 1 14.02 42.15 22.21 22.21 0 0 1-14.02-42.15zM378.38 674.96c11.35.24 19.82 5.57 23.07 16.88a24.11 24.11 0 0 1-2.64 19.45c-3.9 6.18-8.27 8.1-15.02 9.68-31.34-1.7-31.83-35.3-5.41-46.01zm455.54-195.14a21.48 21.48 0 1 1 .78 42.94 21.48 21.48 0 0 1-.78-42.94z"/></svg>