<svg xmlns="http://www.w3.org/2000/svg" xml:space="preserve" viewBox="0 0 30 30"><style>.st23{fill:#fff}</style><g id="图层_1"><path fill="#2d2d2d" stroke="#fff" stroke-miterlimit="10" stroke-width=".63" d="M24.51 28.51H5.49a4 4 0 0 1-4-4V5.49a4 4 0 0 1 4-4h19.03a4 4 0 0 1 4 4v19.03a4.01 4.01 0 0 1-4.01 3.99z"/><path d="m15.47 7.1-1.3 1.85c-.2.29-.54.47-.9.47h-7.1V7.09c-.01.01 9.3.01 9.3.01zM24.3 7.1 13.14 22.91H5.7L16.86 7.1zM14.53 22.91l1.31-1.86c.2-.29.54-.47.9-.47h7.09v2.33h-9.3z" class="st23"/></g></svg>