<svg xmlns="http://www.w3.org/2000/svg" viewBox=".89 2.58 38.16 35.59"><path fill="#fff" d="m11.718 18.437-.57-1.796h-5.26l-.57 1.796H1.667l5.28-14.784h3.147l5.344 14.784h-3.719zM8.53 7.877l-1.816 6.082h3.59L8.53 7.877zm7.314-4.224h3.463v14.784h-3.463V3.653zm4.397 11.763c.156-.73.43-1.43.814-2.07a5.981 5.981 0 0 1 1.235-1.436 13.026 13.026 0 0 1 1.573-1.12c.437-.253.841-.496 1.215-.728.344-.211.672-.448.982-.707a2.91 2.91 0 0 0 .665-.793c.165-.3.249-.639.243-.982 0-.59-.162-1.017-.485-1.277a1.862 1.862 0 0 0-1.204-.391 1.905 1.905 0 0 0-1.342.496c-.359.331-.538.884-.538 1.658h-3.4a4.99 4.99 0 0 1 .348-1.88 4.156 4.156 0 0 1 1.024-1.5 4.817 4.817 0 0 1 1.648-.992 6.44 6.44 0 0 1 2.238-.359 6.968 6.968 0 0 1 1.932.264 4.769 4.769 0 0 1 1.616.803c.474.37.854.848 1.109 1.394.287.632.428 1.322.412 2.016a3.564 3.564 0 0 1-.402 1.69c-.26.496-.59.952-.982 1.352-.382.39-.803.74-1.256 1.046-.451.302-.86.56-1.226.77-.507.338-.926.63-1.256.877a5.967 5.967 0 0 0-.792.686c-.182.187-.322.41-.412.655-.081.252-.12.516-.116.781h6.336v2.767H19.956a13.575 13.575 0 0 1 .285-3.02zM30.873 6.25a8.065 8.065 0 0 0 1.763-.16 2.546 2.546 0 0 0 1.067-.474 1.65 1.65 0 0 0 .528-.803 4.03 4.03 0 0 0 .148-1.162H37.4v14.785h-3.484V8.658h-3.043V6.249z"/><path fill="#E91E63" d="M1.81 22.438h3.23V37.22H1.81V22.438zm15.161 4.595v10.18H13.74v-1.436a2.641 2.641 0 0 1-.507.665 3.266 3.266 0 0 1-.729.528 4.444 4.444 0 0 1-.897.358c-.316.09-.643.136-.972.137a4.874 4.874 0 0 1-2.017-.412 4.777 4.777 0 0 1-1.573-1.119 4.963 4.963 0 0 1-1.014-1.69 6.454 6.454 0 0 1 0-4.245c.221-.625.566-1.2 1.014-1.69a4.777 4.777 0 0 1 1.573-1.118 4.874 4.874 0 0 1 2.018-.411c.328 0 .655.047.971.137.313.087.614.211.898.37.266.149.511.333.728.549.198.194.369.414.507.654v-1.457h3.231zm-5.66 7.688c.342.005.682-.067.992-.211a2.424 2.424 0 0 0 1.258-1.383c.12-.321.18-.661.179-1.004a2.725 2.725 0 0 0-.676-1.816 2.352 2.352 0 0 0-.76-.57 2.44 2.44 0 0 0-1.986 0c-.29.136-.549.33-.761.57a2.727 2.727 0 0 0-.676 1.817c-.002.342.059.682.18 1.003a2.427 2.427 0 0 0 1.257 1.383c.31.144.65.216.993.211zm9.586 2.499h-3.232V22.439h3.232v6.06a3.242 3.242 0 0 1 1.245-1.204c.285-.156.586-.28.898-.37.32-.091.65-.137.982-.137a4.873 4.873 0 0 1 2.017.412 4.77 4.77 0 0 1 1.573 1.12c.448.49.792 1.064 1.014 1.689a6.463 6.463 0 0 1 0 4.245 4.974 4.974 0 0 1-1.014 1.69 4.771 4.771 0 0 1-1.573 1.119c-.636.28-1.323.42-2.017.412-.332 0-.663-.046-.982-.137a4.78 4.78 0 0 1-.898-.359 3.17 3.17 0 0 1-.738-.527 2.64 2.64 0 0 1-.507-.666v1.436zm2.45-2.491c.335.003.667-.069.971-.211a2.422 2.422 0 0 0 1.258-1.384c.12-.32.18-.66.179-1.003a2.725 2.725 0 0 0-.676-1.816 2.353 2.353 0 0 0-.761-.57 2.235 2.235 0 0 0-.971-.213 2.318 2.318 0 0 0-1.774.781 2.725 2.725 0 0 0-.676 1.817c-.002.342.059.682.179 1.003.111.304.28.583.496.824a2.386 2.386 0 0 0 1.775.772zm11.71-3.507c.45.126.873.264 1.267.412a4.23 4.23 0 0 1 1.035.549c.293.215.535.493.708.813.188.38.279.8.264 1.225a3.025 3.025 0 0 1-.36 1.531c-.24.416-.581.765-.992 1.014-.452.272-.95.461-1.468.56a9.012 9.012 0 0 1-1.785.168c-1.45 0-2.594-.317-3.431-.95-.839-.634-1.088-1.542-1.088-2.725h2.999c0 .536.152.92.454 1.151.34.245.753.367 1.172.349a1.85 1.85 0 0 0 .961-.222.783.783 0 0 0 .37-.729.69.69 0 0 0-.159-.475 1.525 1.525 0 0 0-.486-.338 6.082 6.082 0 0 0-.844-.317 82.258 82.258 0 0 1-1.236-.39 16.209 16.209 0 0 1-1.204-.412 4.383 4.383 0 0 1-1.003-.539 2.29 2.29 0 0 1-.686-.802 2.633 2.633 0 0 1-.254-1.225c0-1.056.405-1.838 1.215-2.345.81-.506 1.904-.76 3.284-.76a6.416 6.416 0 0 1 1.932.264c.502.147.97.395 1.373.728.352.3.63.675.814 1.099.183.426.277.886.274 1.351h-3.19a1.381 1.381 0 0 0-.326-.982 1.317 1.317 0 0 0-1.004-.348c-.297-.008-.59.07-.844.221a.747.747 0 0 0-.36.687.635.635 0 0 0 .17.454c.142.14.31.251.495.327.265.116.537.215.814.296.323.1.696.22 1.12.36z"/></svg>