<svg xmlns="http://www.w3.org/2000/svg" fill="none" viewBox="0 0 191 135"><g clip-path="url(#a)"><path fill="#FFD800" d="M54.322 0H27.153v27.09h27.17V0ZM162.984 0h-27.169v27.09h27.169V0Z"/><path fill="#FFAF00" d="M81.482 27.091H27.153v27.09h54.33V27.09ZM162.99 27.091h-54.329v27.09h54.329V27.09Z"/><path fill="#FF8205" d="M162.972 54.168H27.153v27.09h135.819v-27.09Z"/><path fill="#FA500F" d="M54.322 81.26H27.153v27.089h27.17v-27.09ZM108.661 81.26h-27.17v27.089h27.17v-27.09ZM162.984 81.26h-27.169v27.089h27.169v-27.09Z"/><path fill="#E10500" d="M81.488 108.339H-.002v27.09h81.49v-27.09ZM190.159 108.339h-81.498v27.09h81.498v-27.09Z"/></g><defs><clipPath id="a"><path fill="#fff" d="M0 0h190.141v135H0z"/></clipPath></defs></svg>